<svg xmlns="http://www.w3.org/2000/svg" width="129" height="40" viewBox="0 0 129 40" fill="none"><path d="M50 32H67V26.7552H56.0422V7H50V32Z" fill="#1A1E23"></path><path d="M77.9817 28.7196C75.3857 28.7196 74.0329 26.4317 74.0329 23C74.0329 19.5683 75.3857 17.2435 77.9817 17.2435C80.5777 17.2435 81.9671 19.5683 81.9671 23C81.9671 26.4317 80.5777 28.7196 77.9817 28.7196ZM78.0183 33C84.0512 33 88 28.6827 88 23C88 17.3173 84.0512 13 78.0183 13C72.0219 13 68 17.3173 68 23C68 28.6827 72.0219 33 78.0183 33Z" fill="#1A1E23"></path><path d="M98.5919 39C101.385 39 103.847 38.3722 105.501 36.8949C107.008 35.5284 108 33.4602 108 30.6165V13.554H102.267V15.5852H102.193C101.091 13.9972 99.4004 13 96.9014 13C92.234 13 89 16.9148 89 22.4545C89 28.2528 92.9323 31.429 97.1586 31.429C99.4371 31.429 100.87 30.5057 101.973 29.25H102.12V31.1335C102.12 33.4233 101.054 34.7528 98.5184 34.7528C96.5339 34.7528 95.5416 33.9034 95.2108 32.9063H89.4043C89.9923 36.858 93.4101 39 98.5919 39ZM98.5551 26.9602C96.3133 26.9602 94.8433 25.1136 94.8433 22.2699C94.8433 19.3892 96.3133 17.5426 98.5551 17.5426C101.054 17.5426 102.377 19.6847 102.377 22.233C102.377 24.892 101.164 26.9602 98.5551 26.9602Z" fill="#1A1E23"></path><path d="M118.981 28.7196C116.386 28.7196 115.033 26.4317 115.033 23C115.033 19.5683 116.386 17.2435 118.981 17.2435C121.577 17.2435 122.967 19.5683 122.967 23C122.967 26.4317 121.577 28.7196 118.981 28.7196ZM119.018 33C125.051 33 129 28.6827 129 23C129 17.3173 125.051 13 119.018 13C113.022 13 109 17.3173 109 23C109 28.6827 113.022 33 119.018 33Z" fill="#1A1E23"></path><path fill-rule="evenodd" clip-rule="evenodd" d="M8.55273 3.59787C7.12207 4.59823 5.82837 5.78098 4.70532 7.1124C9.29462 6.68633 15.1252 7.38205 21.8944 10.7667C29.123 14.3809 34.9438 14.5031 38.9948 13.7217C38.6272 12.6088 38.1644 11.5392 37.6163 10.5224C32.979 11.0115 27.034 10.3641 20.1056 6.89998C15.706 4.70018 11.8278 3.79401 8.55273 3.59787ZM34.9074 6.66665C31.2453 2.575 25.9234 0 20 0C18.2605 0 16.5727 0.222107 14.9637 0.63948C17.1429 1.23409 19.4579 2.10399 21.8944 3.32227C26.967 5.85853 31.3464 6.67516 34.9074 6.66665ZM39.8609 17.6281C34.9669 18.5945 28.2088 18.396 20.1056 14.3444C12.53 10.5566 6.50043 10.6043 2.4339 11.508C2.224 11.5546 2.01904 11.6036 1.81903 11.6546C1.28662 12.8125 0.861634 14.0301 0.556702 15.2945C0.882386 15.2075 1.21893 15.1248 1.56616 15.0476C6.49957 13.9513 13.4701 13.9989 21.8944 18.2111C29.4701 21.9989 35.4996 21.9512 39.5662 21.0475C39.7055 21.0166 39.8428 20.9846 39.9778 20.9516C39.9926 20.6363 40 20.319 40 20C40 19.1975 39.9528 18.406 39.8609 17.6281ZM39.3248 25.1723C34.4783 26.0196 27.917 25.6944 20.1056 21.7888C12.53 18.001 6.50043 18.0487 2.4339 18.9524C1.53125 19.1529 0.719239 19.3972 0.00293 19.6551C0.000977 19.7698 0 19.8848 0 20C0 31.0457 8.95429 40 20 40C29.2571 40 37.0453 33.7109 39.3248 25.1723Z" fill="#1A1E23"></path></svg>